<?xml version="1.0" standalone="no"?>
<!DOCTYPE svg PUBLIC "-//W3C//DTD SVG 20010904//EN"
 "http://www.w3.org/TR/2001/REC-SVG-20010904/DTD/svg10.dtd">
<svg version="1.0" xmlns="http://www.w3.org/2000/svg"
 width="1410.000000pt" height="1410.000000pt" viewBox="0 0 1410.000000 1410.000000"
 preserveAspectRatio="xMidYMid meet">
<metadata>
Created by potrace 1.14, written by Peter Selinger 2001-2017
</metadata>
<g transform="translate(0.000000,1410.000000) scale(0.100000,-0.100000)"
fill="#000000" stroke="none">
<path d="M6681 10887 c-13 -17 12 -43 47 -49 12 -1 24 -7 25 -13 1 -6 -46 -14
-110 -20 -81 -7 -117 -15 -129 -27 -20 -20 -9 -42 18 -35 20 6 118 -41 118
-55 0 -12 -45 -9 -58 4 -6 6 -42 12 -79 12 -104 1 -163 -33 -178 -104 -4 -19
-11 -41 -15 -50 -4 -8 -17 -36 -29 -61 -25 -55 -32 -62 -90 -78 -76 -22 -146
-106 -212 -256 -9 -19 -28 -103 -51 -225 -12 -66 -2 -514 14 -610 5 -36 12
-157 14 -270 2 -113 8 -214 14 -225 5 -11 11 -65 13 -120 5 -101 25 -164 63
-196 8 -6 14 -17 15 -23 0 -14 112 -106 152 -125 31 -15 47 -46 47 -90 0 -16
7 -34 15 -41 12 -10 15 -40 15 -151 0 -77 -4 -139 -9 -139 -4 0 -11 -20 -14
-45 -4 -24 -11 -53 -17 -62 -5 -10 -16 -34 -25 -53 -19 -43 -32 -65 -66 -110
-14 -19 -29 -43 -32 -52 -5 -14 -18 -18 -56 -18 -27 0 -52 -4 -55 -9 -4 -5
-24 -12 -46 -16 -22 -4 -40 -11 -40 -16 0 -6 -8 -9 -17 -7 -12 2 -19 -4 -21
-19 -2 -13 -7 -23 -12 -23 -5 0 -11 -14 -15 -30 -7 -31 -11 -33 -95 -45 -24
-3 -59 -17 -76 -30 -18 -14 -36 -25 -39 -25 -3 0 -21 -11 -39 -25 -18 -14 -38
-25 -44 -25 -6 0 -12 -4 -14 -9 -5 -14 -129 -78 -165 -86 -18 -3 -33 -10 -33
-15 0 -4 -22 -10 -50 -14 -27 -4 -52 -11 -55 -16 -3 -6 -16 -10 -28 -10 -13 0
-32 -7 -44 -15 -12 -8 -44 -20 -72 -26 -28 -6 -51 -15 -51 -20 0 -5 -7 -9 -15
-9 -8 0 -30 -14 -48 -30 -19 -17 -39 -30 -44 -30 -5 0 -20 -11 -33 -24 -12
-14 -41 -34 -64 -46 -69 -36 -85 -46 -110 -73 -14 -15 -29 -27 -33 -27 -13 0
-83 -74 -83 -87 0 -7 -7 -16 -15 -21 -9 -4 -18 -26 -21 -48 -3 -21 -12 -52
-19 -69 -7 -16 -16 -47 -20 -68 -4 -20 -11 -40 -16 -42 -4 -3 -11 -33 -15 -66
-4 -32 -10 -62 -15 -64 -4 -3 -11 -31 -15 -63 -3 -31 -10 -61 -14 -67 -4 -5
-12 -39 -18 -74 -6 -35 -16 -69 -22 -76 -6 -7 -13 -36 -17 -64 -3 -28 -10 -54
-14 -57 -5 -3 -9 -15 -9 -27 0 -12 -6 -34 -13 -48 -8 -14 -17 -67 -21 -118 -4
-51 -11 -100 -16 -109 -9 -19 -30 -273 -30 -369 0 -34 -4 -64 -9 -67 -4 -3
-11 -46 -13 -96 -3 -49 -10 -96 -15 -102 -6 -7 -13 -49 -17 -92 -3 -43 -10
-84 -15 -90 -11 -15 -31 -121 -31 -167 0 -21 -4 -40 -9 -43 -5 -3 -12 -26 -15
-51 -4 -25 -14 -57 -22 -73 -21 -41 -17 -62 21 -98 43 -40 89 -64 126 -64 16
0 44 -8 63 -18 41 -20 46 -41 46 -188 0 -55 4 -104 9 -110 5 -5 14 -156 21
-336 10 -265 10 -340 -1 -395 -7 -38 -16 -72 -21 -77 -11 -13 -10 -240 1 -252
5 -5 14 -79 21 -164 7 -85 14 -158 17 -162 2 -5 51 -8 108 -8 85 0 104 3 109
16 12 31 7 299 -6 312 -9 9 -12 79 -12 250 -1 198 2 242 14 257 13 15 15 65
15 312 0 204 -3 296 -11 301 -6 4 -13 40 -16 80 l-5 72 33 0 c18 0 35 -4 38
-9 4 -5 65 -12 136 -16 72 -4 133 -12 136 -16 7 -12 127 -12 139 0 18 16 152
21 165 6 6 -7 13 -66 17 -131 3 -66 11 -125 17 -133 15 -19 12 -269 -3 -284
-17 -17 -14 -262 3 -290 9 -13 17 -67 21 -140 4 -64 11 -120 16 -123 12 -7 12
-101 0 -108 -5 -3 -12 -22 -16 -42 -3 -20 -10 -44 -15 -53 -31 -55 -54 -241
-32 -254 6 -4 3417 -12 3685 -8 116 1 119 3 92 54 -8 15 -17 45 -21 65 -4 20
-10 42 -15 47 -4 6 -13 51 -19 100 -7 50 -16 99 -20 110 -5 11 -12 44 -15 72
-4 29 -11 55 -15 58 -4 3 -11 29 -15 58 -4 28 -11 57 -15 62 -4 6 -13 53 -20
105 -7 52 -16 100 -20 105 -4 6 -11 37 -15 69 -4 33 -11 66 -16 75 -12 22 -31
183 -31 254 1 31 -3 57 -7 57 -4 0 -10 120 -14 266 -3 173 -9 270 -16 277 -6
6 -11 24 -11 39 0 31 6 35 100 63 30 9 74 25 97 36 24 10 49 19 57 19 8 0 17
4 20 9 3 5 22 12 43 16 20 4 46 13 57 21 11 8 31 14 43 14 23 0 120 49 162 81
13 11 29 19 35 19 6 0 21 8 34 18 22 17 22 20 11 72 -6 30 -15 60 -20 65 -4 6
-11 35 -15 65 -4 30 -10 60 -15 66 -5 6 -9 33 -9 60 -1 57 -20 175 -31 189 -4
6 -11 38 -15 73 -3 34 -10 62 -14 62 -4 0 -11 28 -14 62 -4 35 -12 68 -17 74
-5 7 -15 62 -22 123 -6 61 -15 111 -18 111 -4 0 -11 29 -14 65 -4 36 -11 65
-15 65 -4 0 -11 31 -15 69 -7 68 -27 146 -36 137 -2 -2 -4 18 -5 44 0 27 -5
55 -11 62 -6 7 -13 46 -16 86 -3 41 -10 79 -15 85 -6 7 -13 41 -16 77 -7 61
-38 186 -56 220 -4 9 -11 30 -15 49 -4 18 -13 44 -21 59 -8 15 -14 36 -14 47
0 11 -6 29 -14 40 -7 11 -16 37 -20 57 -5 25 -21 52 -52 83 -25 25 -50 45 -56
45 -5 0 -32 11 -60 25 -27 14 -54 25 -60 25 -6 0 -25 10 -42 23 -17 13 -47 29
-66 36 -60 23 -98 41 -102 49 -5 12 -71 41 -123 53 -27 7 -54 15 -60 20 -5 4
-28 10 -50 14 -22 4 -45 11 -51 16 -5 4 -48 11 -95 15 -46 4 -88 10 -94 14 -5
5 -27 11 -48 15 -20 4 -48 15 -60 25 -40 32 -120 71 -165 81 -44 10 -44 9 -84
-36 -32 -36 -46 -45 -72 -45 -18 0 -38 -6 -44 -12 -17 -17 -279 -18 -290 -2
-4 6 -18 15 -32 19 -14 4 -27 11 -30 14 -7 9 -117 61 -129 61 -6 0 -11 5 -11
10 0 6 -5 10 -11 10 -7 0 -32 17 -58 38 -25 20 -54 42 -66 47 -11 6 -24 20
-30 33 -5 12 -15 22 -21 22 -20 0 -79 74 -100 123 -10 26 -22 47 -26 47 -3 0
-9 15 -13 33 -3 17 -10 41 -14 52 -5 11 -14 40 -20 65 -12 43 -31 92 -55 135
-7 13 -12 126 -14 315 -3 253 -1 298 12 315 9 11 16 14 16 8 0 -7 5 -13 10
-13 6 0 30 -9 52 -20 23 -11 46 -20 51 -20 5 0 20 -9 34 -20 14 -11 41 -23 62
-26 66 -13 81 -29 81 -90 0 -95 19 -143 80 -205 88 -89 160 -113 300 -100 77
7 130 24 130 43 0 4 23 29 50 56 28 27 50 53 50 56 0 4 15 26 34 49 18 23 41
61 52 85 17 41 19 42 64 42 l47 0 6 -77 c6 -86 29 -142 76 -187 39 -37 140
-56 203 -37 97 29 151 65 184 123 65 116 69 128 68 245 l0 112 -38 45 c-21 25
-47 52 -59 58 -28 16 -767 25 -767 10 0 -5 -21 -12 -47 -15 -27 -3 -50 -11
-55 -21 -5 -9 -15 -16 -22 -16 -18 0 -136 -127 -136 -145 0 -9 -10 -15 -25
-15 -14 0 -25 5 -25 10 0 6 -12 10 -27 10 -21 0 -24 3 -15 12 10 10 17 10 33
0 18 -11 23 -11 35 5 7 10 14 23 14 29 0 15 67 74 116 101 l39 22 -32 1 c-17
0 -34 -4 -37 -9 -4 -5 -29 -12 -58 -16 -64 -9 -121 -37 -170 -83 -35 -34 -37
-34 -97 -27 -34 4 -61 10 -61 15 0 4 -21 10 -47 14 -27 4 -57 13 -67 21 -11 8
-28 15 -38 15 -10 0 -18 5 -18 10 0 6 -6 10 -14 10 -22 0 -24 9 -15 95 5 59
15 95 37 135 16 31 32 77 36 104 4 27 11 56 15 65 5 9 15 32 23 51 45 103 57
123 109 177 47 47 105 89 154 111 17 8 42 20 57 27 15 7 52 19 82 26 31 7 56
16 56 21 0 4 7 8 16 8 17 0 64 19 130 52 35 18 52 20 114 14 41 -3 78 -10 84
-15 6 -5 27 -12 46 -15 40 -8 65 -18 135 -53 58 -30 185 -149 185 -175 0 -9 4
-19 9 -22 5 -4 12 -24 16 -46 4 -22 10 -42 15 -45 4 -3 11 -27 15 -55 4 -27
13 -54 21 -61 7 -6 16 -26 20 -45 3 -19 10 -34 14 -34 5 0 11 -8 13 -17 3 -10
3 36 0 102 -3 66 -9 127 -13 135 -4 8 -11 54 -15 101 -7 96 -4 102 58 113 30
6 58 27 133 99 l96 92 5 70 6 70 -22 -19 c-11 -11 -21 -25 -21 -32 0 -20 -21
-28 -31 -13 -5 8 -9 67 -9 131 0 67 -4 119 -10 123 -5 3 -10 19 -10 35 0 37
-37 110 -56 110 -8 0 -14 -7 -14 -15 0 -21 -59 -85 -79 -85 -9 1 -26 22 -41
53 -13 29 -39 71 -57 94 -18 23 -33 45 -33 50 0 11 -53 63 -63 63 -4 0 -21 10
-37 21 -16 12 -37 19 -47 17 -64 -17 -205 32 -269 93 -35 34 -92 65 -137 75
-17 3 -39 11 -49 18 -13 8 -24 7 -47 -7 -42 -25 -93 -22 -119 6 -12 13 -22 27
-22 33 0 5 -33 45 -73 88 -78 85 -97 90 -97 29 l0 -36 -23 21 c-13 12 -28 22
-34 22 -6 0 -16 7 -23 15 -7 8 -28 15 -46 15 -19 0 -34 5 -34 10 0 16 -215 13
-229 -3z m-396 -1952 c22 -13 55 -30 72 -39 60 -27 73 -65 73 -204 0 -139 12
-202 46 -249 13 -17 24 -39 24 -48 0 -23 -92 -107 -104 -95 -5 5 -20 10 -33
10 -13 0 -31 9 -40 20 -10 11 -25 20 -34 20 -9 0 -22 7 -29 15 -7 8 -19 15
-26 15 -8 0 -34 18 -58 40 -24 22 -46 40 -50 40 -11 0 -36 27 -36 38 0 5 -6
15 -13 21 -8 6 -25 32 -38 58 -21 41 -24 60 -24 160 0 67 4 117 10 121 6 4 15
18 21 31 28 66 161 92 239 46z m1700 -5 c-10 -11 -23 -20 -29 -20 -15 0 -76
-62 -76 -77 0 -9 -19 -13 -70 -13 -65 0 -71 2 -79 24 -5 12 -31 42 -58 64
l-48 42 189 0 c188 0 189 0 171 -20z m28 -43 c-33 -34 -64 -73 -68 -87 -10
-32 -25 -51 -35 -45 -9 6 6 71 20 89 45 56 77 89 94 96 49 20 46 6 -11 -53z
m-1200 -52 c15 -8 45 -17 65 -21 20 -4 42 -10 47 -15 6 -4 34 -11 63 -15 28
-3 52 -10 52 -15 0 -16 -22 -21 -43 -11 -12 6 -43 13 -69 17 -27 3 -48 10 -48
14 0 5 -13 11 -29 14 -34 7 -103 47 -81 47 8 0 28 -7 43 -15z m1035 -47 c-3
-20 -9 -23 -53 -23 -44 0 -50 3 -53 23 -3 21 0 22 53 22 53 0 56 -1 53 -22z
m-630 -48 c19 0 21 -3 11 -19 -11 -16 -15 -17 -40 -4 -38 19 -50 38 -18 30 13
-4 34 -7 47 -7z m620 -32 c3 -27 2 -28 -47 -28 -50 0 -51 1 -51 31 0 30 1 30
48 27 43 -3 47 -5 50 -30z m72 -18 c0 -27 -4 -50 -10 -50 -11 0 -14 83 -3 93
12 12 13 8 13 -43z m-1402 -936 c26 -14 54 -32 63 -40 8 -8 21 -14 27 -14 7 0
12 -4 12 -10 0 -5 7 -10 16 -10 9 0 35 -9 58 -19 23 -11 48 -22 56 -25 8 -4
34 -17 58 -30 23 -14 57 -28 75 -31 35 -8 58 -19 192 -89 l89 -48 241 4 c132
3 248 8 258 12 15 7 17 3 17 -32 0 -23 -4 -44 -10 -47 -5 -3 -10 -18 -10 -33
0 -61 -154 -250 -222 -275 -10 -4 -18 -11 -18 -16 0 -5 -13 -12 -30 -16 -16
-4 -30 -10 -30 -15 0 -5 -25 -14 -55 -21 -30 -7 -55 -16 -55 -21 0 -4 -10 -8
-22 -8 -13 0 -36 -7 -53 -16 -16 -9 -54 -18 -83 -21 -29 -3 -55 -10 -58 -14
-7 -12 -184 -12 -184 0 0 5 -22 11 -50 15 -36 5 -50 11 -50 23 0 9 -10 25 -22
37 -13 12 -33 41 -44 66 -12 25 -29 60 -38 79 -9 19 -16 40 -16 48 0 14 -39
76 -52 81 -5 2 -8 11 -8 20 0 14 -50 125 -92 206 -11 22 -24 286 -14 286 4 0
28 -12 54 -26z m-504 -324 c7 0 27 -15 43 -32 17 -18 68 -72 115 -120 84 -88
85 -88 134 -88 53 0 104 -18 104 -36 0 -6 22 -14 50 -18 44 -6 59 -15 135 -84
79 -71 99 -104 43 -69 -13 8 -36 18 -53 21 -16 4 -43 13 -60 21 -96 44 -130
61 -175 87 -8 5 -28 15 -45 23 -16 7 -45 25 -64 39 -19 14 -39 26 -44 26 -6 0
-33 21 -61 48 -29 26 -73 66 -100 90 -40 35 -49 50 -53 85 -3 33 -2 38 7 25 6
-10 17 -18 24 -18z"/>
<path d="M6091 8858 c-9 -15 -15 -59 -17 -123 -2 -55 -1 -92 2 -82 3 9 9 17
13 17 5 0 11 27 14 60 6 67 28 110 56 110 18 0 91 -71 91 -89 0 -5 -12 -19
-27 -32 l-28 -22 45 7 c56 9 69 20 52 46 -6 11 -12 28 -12 39 0 11 -19 35 -44
55 -35 29 -51 36 -87 36 -35 0 -47 -5 -58 -22z"/>
<path d="M6257 8652 c-10 -10 -17 -24 -17 -30 0 -7 -6 -12 -14 -12 -24 0 -37
-102 -15 -116 7 -4 9 0 5 14 -4 11 -4 32 0 46 10 43 55 23 155 -69 9 -8 19
-12 22 -8 14 14 6 43 -15 54 -47 23 -76 87 -48 104 6 3 10 13 10 21 0 21 -63
18 -83 -4z"/>
<path d="M6230 8469 c0 -19 47 -65 57 -55 4 3 -7 21 -25 39 -22 22 -32 27 -32
16z"/>
</g>
</svg>
